<?xml version="1.0" encoding="UTF-8" standalone="no"?>
<svg
   xmlns:dc="http://purl.org/dc/elements/1.1/"
   xmlns:cc="http://creativecommons.org/ns#"
   xmlns:rdf="http://www.w3.org/1999/02/22-rdf-syntax-ns#"
   xmlns:svg="http://www.w3.org/2000/svg"
   xmlns="http://www.w3.org/2000/svg"
   xmlns:sodipodi="http://sodipodi.sourceforge.net/DTD/sodipodi-0.dtd"
   xmlns:inkscape="http://www.inkscape.org/namespaces/inkscape"
   viewBox="0 0 320 256"
   height="256"
   width="320"
   xml:space="preserve"
   id="svg2"
   version="1.1"
   sodipodi:docname="realtime_robotics.svg"
   inkscape:version="0.92.1 r15371"><sodipodi:namedview
     pagecolor="#ffffff"
     bordercolor="#666666"
     borderopacity="1"
     objecttolerance="10"
     gridtolerance="10"
     guidetolerance="10"
     inkscape:pageopacity="0"
     inkscape:pageshadow="2"
     inkscape:window-width="1920"
     inkscape:window-height="1017"
     id="namedview3724"
     showgrid="false"
     inkscape:zoom="2"
     inkscape:cx="315.43555"
     inkscape:cy="100.21431"
     inkscape:window-x="1912"
     inkscape:window-y="-8"
     inkscape:window-maximized="1"
     inkscape:current-layer="g12" /><metadata
     id="metadata8"><rdf:RDF><cc:Work
         rdf:about=""><dc:format>image/svg+xml</dc:format><dc:type
           rdf:resource="http://purl.org/dc/dcmitype/StillImage" /><dc:title></dc:title></cc:Work></rdf:RDF></metadata><defs
     id="defs6"><clipPath
       id="clipPath22"
       clipPathUnits="userSpaceOnUse"><path
         style="clip-rule:evenodd"
         id="path20"
         d="m 585.648,1279.29 -63.859,-63.86 -63.859,-63.86 -63.856,-63.86 -63.859,-63.85 63.859,-63.86 63.856,-63.859 63.859,-63.86 -63.859,-63.859 -63.856,63.859 -63.859,63.86 -63.856,63.859 -63.859,63.86 63.859,63.85 63.856,63.86 63.859,63.86 63.856,63.86 z" /></clipPath><linearGradient
       id="linearGradient28"
       spreadMethod="pad"
       gradientTransform="scale(10)"
       gradientUnits="userSpaceOnUse"
       y2="78.9505"
       x2="47.916901"
       y1="103.37"
       x1="23.4972"><stop
         id="stop24"
         offset="0"
         style="stop-opacity:1;stop-color:#b10000" /><stop
         id="stop26"
         offset="1"
         style="stop-opacity:1;stop-color:#770000" /></linearGradient><clipPath
       id="clipPath38"
       clipPathUnits="userSpaceOnUse"><path
         style="clip-rule:evenodd"
         id="path36"
         d="m 394.074,960 -63.859,63.86 63.859,63.85 63.856,63.86 63.859,63.86 63.859,63.86 63.86,-63.86 63.859,-63.86 63.856,-63.86 63.859,-63.85 V 896.141 L 777.223,960 l -63.856,63.86 -63.859,63.85 -63.86,63.86 -63.859,-63.86 -63.859,-63.85 z" /></clipPath><linearGradient
       id="linearGradient44"
       spreadMethod="pad"
       gradientTransform="scale(10)"
       gradientUnits="userSpaceOnUse"
       y2="118.554"
       x2="109.884"
       y1="98.8909"
       x1="36.501999"><stop
         id="stop40"
         offset="0"
         style="stop-opacity:1;stop-color:#999999" /><stop
         id="stop42"
         offset="1"
         style="stop-opacity:1;stop-color:#e6e6e6" /></linearGradient><clipPath
       id="clipPath54"
       clipPathUnits="userSpaceOnUse"><path
         style="clip-rule:evenodd"
         id="path52"
         d="M 266.359,960 202.5,1023.86 V 896.141 l 63.859,-63.86 63.856,-63.859 63.859,-63.856 63.856,-63.859 63.859,63.859 63.859,63.856 63.86,63.859 63.859,63.86 -63.859,63.859 -63.86,-63.859 -63.859,-63.86 -63.859,-63.859 -63.856,63.859 -63.859,63.86 z" /></clipPath><linearGradient
       id="linearGradient60"
       spreadMethod="pad"
       gradientTransform="scale(10)"
       gradientUnits="userSpaceOnUse"
       y2="90.366203"
       x2="19.740499"
       y1="90.366203"
       x1="81.5839"><stop
         id="stop56"
         offset="0"
         style="stop-opacity:1;stop-color:#999999" /><stop
         id="stop58"
         offset="1"
         style="stop-opacity:1;stop-color:#e6e6e6" /></linearGradient><clipPath
       id="clipPath70"
       clipPathUnits="userSpaceOnUse"><path
         style="clip-rule:evenodd"
         id="path68"
         d="m 457.93,640.707 63.859,63.859 63.859,63.856 63.86,63.859 63.859,63.86 -63.859,63.859 -63.86,63.86 -63.859,63.85 63.859,63.86 63.86,-63.86 63.859,-63.85 63.856,-63.86 63.859,-63.859 -63.859,-63.86 -63.856,-63.859 -63.859,-63.856 -63.86,-63.859 z" /></clipPath><linearGradient
       id="linearGradient76"
       spreadMethod="pad"
       gradientTransform="scale(10)"
       gradientUnits="userSpaceOnUse"
       y2="111.462"
       x2="55.575199"
       y1="94.122704"
       x1="72.914497"><stop
         id="stop72"
         offset="0"
         style="stop-opacity:1;stop-color:#b10000" /><stop
         id="stop74"
         offset="1"
         style="stop-opacity:1;stop-color:#770000" /></linearGradient></defs><g
     transform="matrix(1.3333333,0,0,-1.3333333,0,256)"
     id="g10"><g
       transform="scale(0.1)"
       id="g12"><path
         id="path14"
         style="fill:#ffffff;fill-opacity:1;fill-rule:evenodd;stroke:none"
         d="M 0,1920 H 2400 V 0 H 0 v 1920" /><g
         id="g16"><g
           clip-path="url(#clipPath22)"
           id="g18"><path
             id="path30"
             style="fill:url(#linearGradient28);fill-opacity:1;fill-rule:nonzero;stroke:none"
             d="m 585.648,1279.29 -63.859,-63.86 -63.859,-63.86 -63.856,-63.86 -63.859,-63.85 63.859,-63.86 63.856,-63.859 63.859,-63.86 -63.859,-63.859 -63.856,63.859 -63.859,63.86 -63.856,63.859 -63.859,63.86 63.859,63.85 63.856,63.86 63.859,63.86 63.856,63.86 h 127.718" /></g></g><g
         id="g32"><g
           clip-path="url(#clipPath38)"
           id="g34"><path
             id="path46"
             style="fill:url(#linearGradient44);fill-opacity:1;fill-rule:nonzero;stroke:none"
             d="m 394.074,960 -63.859,63.86 63.859,63.85 63.856,63.86 63.859,63.86 63.859,63.86 63.86,-63.86 63.859,-63.86 63.856,-63.86 63.859,-63.85 V 896.141 L 777.223,960 l -63.856,63.86 -63.859,63.85 -63.86,63.86 -63.859,-63.86 L 457.93,1023.86 394.074,960" /></g></g><g
         id="g48"><g
           clip-path="url(#clipPath54)"
           id="g50"><path
             id="path62"
             style="fill:url(#linearGradient60);fill-opacity:1;fill-rule:nonzero;stroke:none"
             d="M 266.359,960 202.5,1023.86 V 896.141 l 63.859,-63.86 63.856,-63.859 63.859,-63.856 63.856,-63.859 63.859,63.859 63.859,63.856 63.86,63.859 63.859,63.86 -63.859,63.859 -63.86,-63.859 -63.859,-63.86 -63.859,-63.859 -63.856,63.859 -63.859,63.86 L 266.359,960" /></g></g><g
         id="g64"><g
           clip-path="url(#clipPath70)"
           id="g66"><path
             id="path78"
             style="fill:url(#linearGradient76);fill-opacity:1;fill-rule:nonzero;stroke:none"
             d="m 457.93,640.707 63.859,63.859 63.859,63.856 63.86,63.859 63.859,63.86 -63.859,63.859 -63.86,63.86 -63.859,63.85 63.859,63.86 63.86,-63.86 63.859,-63.85 63.856,-63.86 63.859,-63.859 -63.859,-63.86 -63.856,-63.859 -63.859,-63.856 -63.86,-63.859 H 457.93" /></g></g><path
         id="path80"
         style="fill:#ffffff;fill-opacity:1;fill-rule:evenodd;stroke:none"
         d="m 521.789,1087.71 63.859,-63.85 -63.859,-63.86 -63.859,63.86 63.859,63.85" /><path
         id="path82"
         style="fill:#ffffff;fill-opacity:1;fill-rule:evenodd;stroke:none"
         d="m 649.508,960 -63.86,63.86 L 521.789,960 585.648,896.141 649.508,960" /><path
         id="path84"
         style="fill:#ffffff;fill-opacity:1;fill-rule:evenodd;stroke:none"
         d="M 394.074,960 457.93,896.141 521.789,960 457.93,1023.86 394.074,960" /><path
         id="path86"
         style="fill:#ffffff;fill-opacity:1;fill-rule:evenodd;stroke:none"
         d="m 521.789,832.281 -63.859,63.86 63.859,63.859 63.859,-63.859 -63.859,-63.86" /><path
         id="path88"
         style="fill:#b30000;fill-opacity:1;fill-rule:nonzero;stroke:none"
         d="m 1064.46,1130.34 h -17.43 c -13.95,0 -24.47,-2.15 -31.56,-6.45 -7.09,-4.3 -10.63,-11.69 -10.63,-22.14 v -101.47 h -50.91 v 168.76 h 48.46 v -29.64 c 0.24,8.37 5.06,15.98 14.48,22.84 9.41,6.86 19.23,10.29 29.46,10.29 h 18.13 z m 171.43,-59.28 H 1126.4 v -15.34 c 0,-9.53 3.37,-16.45 10.12,-20.75 6.73,-4.3 19.4,-6.45 38,-6.45 16.74,0 35.57,2.44 56.48,7.32 v -32.42 c -21.38,-4.42 -43.46,-6.627 -66.24,-6.627 -59.74,0 -89.62,18.247 -89.62,54.747 v 60.66 c 0,21.62 6.98,37.08 20.93,46.38 13.94,9.3 34.75,13.95 62.41,13.95 26.04,0 45.45,-4.42 58.23,-13.25 12.78,-8.83 19.18,-24.53 19.18,-47.08 z m -48.47,28.94 v 24.41 c 0,5.35 -2.15,9.47 -6.45,12.38 -4.3,2.9 -12.03,4.35 -23.19,4.35 -12.32,0 -20.63,-1.45 -24.93,-4.35 -4.3,-2.91 -6.45,-7.03 -6.45,-12.38 V 1100 Z m 227.22,-99.72 h -49.87 v 15.34 c -3.72,-6.74 -9.06,-11.56 -16.04,-14.47 -6.97,-2.908 -19.75,-4.357 -38.35,-4.357 -22.78,0 -37.89,3.487 -45.33,10.457 -7.44,6.98 -11.16,21.5 -11.16,43.59 0,19.99 3.84,33.88 11.51,41.66 7.67,7.79 21.39,11.68 41.14,11.68 h 57.19 v 11.51 c 0,10.23 -2.39,17.03 -7.15,20.4 -4.77,3.37 -14.82,5.05 -30.16,5.05 -14.42,0 -34.17,-1.39 -59.28,-4.18 v 32.08 c 19.3,2.32 40.8,3.49 64.51,3.49 31.15,0 52.76,-3.78 64.85,-11.33 12.09,-7.56 18.14,-22.49 18.14,-44.81 z m -50.91,43.24 v 32.77 h -34.87 c -11.16,0 -18.13,-1.27 -20.92,-3.84 -2.79,-2.55 -4.19,-9.41 -4.19,-20.57 0,-10.92 1.46,-17.55 4.36,-19.87 2.91,-2.33 10.29,-3.49 22.14,-3.49 5.82,0 10.11,0.06 12.91,0.18 2.79,0.11 5.8,0.41 9.06,0.87 3.25,0.47 5.52,1.22 6.8,2.26 1.28,1.05 2.38,2.5 3.31,4.37 0.93,1.85 1.4,4.29 1.4,7.32 z m 135.5,-43.24 h -50.9 v 244.08 h 50.9 z m 146.33,-1.745 c -9.77,-1.164 -19.18,-1.742 -28.25,-1.742 -7.9,0 -14.82,0.289 -20.74,0.867 -5.93,0.582 -12.09,1.977 -18.48,4.19 -6.39,2.21 -11.63,5.11 -15.69,8.72 -4.07,3.6 -7.44,8.71 -10.11,15.34 -2.68,6.62 -4.02,14.47 -4.02,23.53 v 88.22 h -34.17 v 31.38 h 34.17 v 48.82 h 50.91 v -48.82 h 46.38 v -31.38 h -46.38 v -79.5 c 0,-11.62 1.75,-19.47 5.23,-23.53 3.49,-4.08 11.16,-6.11 23.02,-6.11 3.95,0 9.99,0.59 18.13,1.75 z m 69.26,190.375 h -50.91 v 41.15 h 50.91 z m 0,-188.63 h -50.91 v 168.76 h 50.91 z m 294.51,0 h -50.91 v 116.81 c 0,10.23 -1.22,16.79 -3.66,19.7 -2.44,2.9 -9.13,4.35 -20.05,4.35 -13.95,0 -22.49,-1.45 -25.63,-4.35 -3.14,-2.91 -4.7,-9.47 -4.7,-19.7 v -116.81 h -50.91 v 116.81 c 0,10.23 -1.22,16.79 -3.67,19.7 -2.44,2.9 -9.12,4.35 -20.05,4.35 -13.94,0 -22.48,-1.45 -25.62,-4.35 -3.14,-2.91 -4.71,-9.47 -4.71,-19.7 v -116.81 h -50.91 v 168.76 h 50.91 v -20.57 c 3.26,16.04 19.88,24.06 49.86,24.06 16.04,0 28.07,-2.1 36.09,-6.28 8.02,-4.18 13.42,-10.46 16.22,-18.83 2.79,8.6 8.07,14.94 15.86,19.01 7.78,4.06 20.05,6.1 36.78,6.1 22.09,0 36.79,-3.9 44.11,-11.68 7.32,-7.79 10.99,-20.05 10.99,-36.79 z m 188.16,70.78 H 2088 v -15.34 c 0,-9.53 3.37,-16.45 10.11,-20.75 6.75,-4.3 19.41,-6.45 38.01,-6.45 16.74,0 35.56,2.44 56.49,7.32 v -32.42 c -21.39,-4.42 -43.47,-6.627 -66.25,-6.627 -59.74,0 -89.62,18.247 -89.62,54.747 v 60.66 c 0,21.62 6.98,37.08 20.93,46.38 13.94,9.3 34.75,13.95 62.41,13.95 26.04,0 45.44,-4.42 58.23,-13.25 12.78,-8.83 19.18,-24.53 19.18,-47.08 z m -48.47,28.94 v 24.41 c 0,5.35 -2.15,9.47 -6.45,12.38 -4.3,2.9 -12.03,4.35 -23.19,4.35 -12.32,0 -20.63,-1.45 -24.93,-4.35 -4.3,-2.91 -6.45,-7.03 -6.45,-12.38 V 1100 h 61.02" /><path
         id="path90"
         style="fill:#1f1f1f;fill-opacity:1;fill-rule:nonzero;stroke:none;stroke-width:1.03927982"
         d="m 1052.219,848.762 h -18.8262 c -15.5642,0 -27.0457,-1.86 -34.4574,-5.578 -7.40519,-3.719 -11.10886,-10.696 -11.10886,-20.922 V 703.359 H 953.934 v 168.762 h 32.0056 v -27.543 c 0,8.133 5.46424,15.34 16.3873,21.617 10.922,6.274 22.0255,9.414 33.3233,9.414 h 16.5688 z m 181.7705,-33.477 v -58.578 c 0,-10.457 -1.3717,-19.289 -4.1476,-26.496 -2.7543,-7.207 -6.2754,-12.789 -10.5418,-16.738 -4.2664,-3.953 -10.3474,-6.973 -18.2645,-9.067 -7.9064,-2.09 -15.4455,-3.371 -22.5958,-3.836 -7.1503,-0.465 -16.6336,-0.695 -28.4391,-0.695 -15.0566,0 -26.7973,0.465 -35.2113,1.395 -8.4032,0.929 -16.8172,3.195 -25.2312,6.8 -8.414,3.602 -14.4302,9.352 -18.0701,17.258 -3.6508,7.902 -5.4654,18.363 -5.4654,31.379 v 58.578 c 0,11.16 1.4474,20.574 4.3312,28.246 2.8839,7.672 6.4051,13.598 10.5418,17.782 4.1476,4.183 10.2394,7.382 18.2646,9.589 8.0359,2.207 15.5103,3.543 22.4121,4.008 6.9019,0.465 16.3852,0.699 28.4283,0.699 12.054,0 21.5373,-0.234 28.4391,-0.699 6.9019,-0.465 14.3762,-1.801 22.4121,-4.008 8.036,-2.207 14.117,-5.406 18.2646,-9.589 4.1476,-4.184 7.6579,-10.11 10.5418,-17.782 2.8839,-7.672 4.3312,-17.086 4.3312,-28.246 z m -34.6497,-63.109 v 68.34 c 0,15.578 -3.3915,25.222 -10.1638,28.941 -6.783,3.719 -19.8415,5.578 -39.1753,5.578 -19.323,0 -32.3815,-1.859 -39.1645,-5.578 -6.7723,-3.719 -10.1638,-13.363 -10.1638,-28.941 v -68.34 c 0,-7.438 0.8749,-13.363 2.6355,-17.781 1.7605,-4.418 5.0225,-7.614 9.7857,-9.59 4.7741,-1.977 9.6669,-3.2 14.6894,-3.664 5.0225,-0.465 12.432,-0.696 22.2177,-0.696 9.7965,0 17.206,0.231 22.2285,0.696 5.0117,0.464 9.9154,1.687 14.6894,3.664 4.7633,1.976 8.0252,5.172 9.7857,9.59 1.7606,4.418 2.6355,10.343 2.6355,17.781 z m 240.15,75.664 v -69.387 c 0,-10.23 -1.6417,-19.062 -4.9036,-26.5 -3.262,-7.441 -7.3447,-13.191 -12.2376,-17.258 -4.8929,-4.07 -11.3627,-7.265 -19.3987,-9.59 -8.0359,-2.324 -15.5642,-3.781 -22.5957,-4.359 -7.0315,-0.582 -15.5643,-0.871 -25.6092,-0.871 -13.0585,0 -23.7299,0.582 -32.0143,1.742 -8.2844,1.164 -16.5687,3.602 -24.8531,7.321 -8.2844,3.722 -14.441,9.707 -18.4482,17.96 -4.018,8.25 -6.027,18.77 -6.027,31.555 v 188.985 h 33.8937 v -50.559 c 0,-4.418 -0.065,-11.102 -0.1945,-20.051 -0.1188,-8.949 -0.1836,-15.633 -0.1836,-20.047 1.0045,5.344 6.2106,9.821 15.6291,13.422 9.4185,3.606 23.287,5.406 41.6164,5.406 50.2139,0 75.3263,-15.921 75.3263,-47.769 z m -34.6605,-73.922 v 66.25 c 0,14.414 -3.6291,23.535 -10.909,27.371 -7.2907,3.836 -20.2195,5.754 -38.7973,5.754 -17.8217,0 -30.2537,-2.207 -37.2851,-6.625 -7.0315,-4.414 -10.5418,-13.25 -10.5418,-26.5 v -66.25 c 0,-14.176 3.4563,-23.301 10.3581,-27.371 6.9019,-4.067 19.5175,-6.102 37.8468,-6.102 18.5778,0 31.4418,2.035 38.6029,6.102 7.1503,4.07 10.7254,13.195 10.7254,27.371 z m 234.5011,61.367 v -58.578 c 0,-10.457 -1.3825,-19.289 -4.1476,-26.496 -2.7542,-7.207 -6.2754,-12.789 -10.5418,-16.738 -4.2664,-3.953 -10.3582,-6.973 -18.2645,-9.067 -7.9172,-2.09 -15.4455,-3.371 -22.5958,-3.836 -7.161,-0.465 -16.6335,-0.695 -28.4391,-0.695 -15.0566,0 -26.7973,0.465 -35.2113,1.395 -8.414,0.929 -16.8172,3.195 -25.2312,6.8 -8.414,3.602 -14.441,9.352 -18.0809,17.258 -3.64,7.902 -5.4654,18.363 -5.4654,31.379 v 58.578 c 0,11.16 1.4474,20.574 4.3421,28.246 2.8838,7.672 6.3942,13.598 10.5418,17.782 4.1368,4.183 10.2285,7.382 18.2645,9.589 8.036,2.207 15.4995,3.543 22.4121,4.008 6.9019,0.465 16.3852,0.699 28.4283,0.699 12.054,0 21.5373,-0.234 28.4391,-0.699 6.9019,-0.465 14.3762,-1.801 22.4014,-4.008 8.0359,-2.207 14.1277,-5.406 18.2753,-9.589 4.1368,-4.184 7.6579,-10.11 10.5418,-17.782 2.8839,-7.672 4.3312,-17.086 4.3312,-28.246 z m -34.6497,-63.109 v 68.34 c 0,15.578 -3.3915,25.222 -10.1745,28.941 -6.7723,3.719 -19.8307,5.578 -39.1646,5.578 -19.3338,0 -32.3922,-1.859 -39.1645,-5.578 -6.783,-3.719 -10.1746,-13.363 -10.1746,-28.941 v -68.34 c 0,-7.438 0.8857,-13.363 2.6355,-17.781 1.7606,-4.418 5.0225,-7.614 9.7965,-9.59 4.7633,-1.977 9.6669,-3.2 14.6894,-3.664 5.0225,-0.465 12.432,-0.696 22.2177,-0.696 9.7966,0 17.1953,0.231 22.2177,0.696 5.0225,0.464 9.9262,1.687 14.6894,3.664 4.7741,1.976 8.036,5.172 9.7966,9.59 1.7605,4.418 2.6354,10.343 2.6354,17.781 z m 188.5427,-49.512 c -12.0539,-1.859 -24.7343,-2.789 -38.0304,-2.789 -22.855,0 -38.7973,3.66 -47.8377,10.984 -9.0405,7.321 -13.5553,21.211 -13.5553,41.664 v 99.028 h -40.6767 v 20.57 H 1693.8 v 52.301 h 34.2716 v -52.301 h 65.1518 v -20.57 h -65.1518 v -100.77 c 0,-12.086 2.5059,-20.164 7.5284,-24.234 5.0224,-4.067 15.197,-6.102 30.5129,-6.102 4.0071,0 13.0476,0.93 27.1105,2.789 z m 57.4831,197.703 h -33.8936 v 32.778 h 33.8936 z m 0,-197.008 h -33.8936 v 168.762 h 33.8936 z m 177.2448,1.395 c -16.5687,-3.254 -36.0214,-4.879 -58.3687,-4.879 -11.0495,0 -19.6471,0.172 -25.7929,0.52 -6.1565,0.351 -13.188,1.511 -21.0944,3.492 -7.9063,1.972 -13.9333,4.82 -18.0809,8.539 -4.1368,3.719 -7.7227,9.125 -10.7254,16.215 -3.0243,7.089 -4.5256,15.863 -4.5256,26.324 v 62.066 c 0,9.297 0.9397,17.321 2.8298,24.059 1.8794,6.742 4.8281,12.203 8.8461,16.387 4.018,4.183 8.1656,7.554 12.432,10.113 4.2664,2.555 10.0989,4.359 17.5084,5.406 7.4095,1.043 13.9333,1.742 19.5823,2.09 5.6489,0.348 13.242,0.523 22.7902,0.523 17.3248,0 34.6496,-1.746 51.9745,-5.23 v -23.012 c -19.5931,4.649 -38.3004,6.973 -56.1221,6.973 -18.8262,0 -31.0746,-2.094 -36.7235,-6.277 -5.6382,-4.184 -8.468,-13.016 -8.468,-26.5 v -69.04 c 0,-12.316 3.2079,-20.511 9.6021,-24.582 6.405,-4.066 19.5282,-6.101 39.3589,-6.101 17.8217,0 36.1511,2.207 54.9772,6.629 z m 164.8237,57.883 v -14.645 c 0,-18.129 -6.837,-30.683 -20.5219,-37.66 -13.6849,-6.973 -33.332,-10.457 -58.9412,-10.457 -19.5823,0 -40.4175,1.395 -62.5164,4.184 v 24.058 c 30.1241,-4.418 51.2185,-6.625 63.2724,-6.625 15.0567,0 26.3545,1.336 33.8936,4.012 7.5284,2.672 11.2979,8.191 11.2979,16.562 v 17.082 c 0,7.207 -2.6354,12.321 -7.9063,15.344 -5.2817,3.02 -13.8145,4.535 -25.6093,4.535 h -20.7163 c -19.0854,0 -33.5156,3.657 -43.3122,10.981 -9.7965,7.32 -14.6893,17.375 -14.6893,30.16 v 15.691 c 0,26.5 27.1213,39.75 81.3533,39.75 6.027,0 24.4751,-0.929 55.3552,-2.789 v -22.664 c -21.5912,3.254 -40.547,4.879 -56.8674,4.879 -18.0809,0 -30.3184,-1.625 -36.7126,-4.879 -6.4051,-3.254 -9.613,-8.718 -9.613,-16.386 v -14.301 c 0,-11.387 11.1791,-17.082 33.5264,-17.082 h 21.0836 c 38.4193,0 57.6235,-13.25 57.6235,-39.75"
         inkscape:connector-curvature="0" /></g></g></svg>